<svg width="1440" height="2977" viewBox="0 0 1440 2977" fill="none" xmlns="http://www.w3.org/2000/svg">
<path opacity="0.7" d="M830.823 330.13C830.823 332.478 829.446 334.826 828.07 334.826C826.694 334.826 825.318 332.478 825.318 330.13C825.318 327.782 826.694 325.435 828.07 325.435C829.446 325.435 830.823 327.782 830.823 330.13Z" fill="white"/>
<path opacity="0.7" d="M135.872 95.3294C135.872 102.372 131.744 109.416 127.615 109.416C123.487 109.416 119.358 102.372 119.358 95.3294C119.358 88.2862 123.487 81.2432 127.615 81.2432C131.744 83.5909 135.872 88.2862 135.872 95.3294Z" fill="white"/>
<path opacity="0.7" d="M58.8101 245.579C58.8101 247.927 57.434 250.275 56.0579 250.275C54.6817 250.275 53.3057 247.927 53.3057 245.579C53.3057 243.231 54.6817 240.884 56.0579 240.884C57.434 240.884 58.8101 243.231 58.8101 245.579Z" fill="white"/>
<path opacity="0.7" d="M1055.13 191.585C1055.13 193.933 1053.76 196.28 1052.38 196.28C1051 196.28 1049.63 193.933 1049.63 191.585C1049.63 189.237 1051 186.889 1052.38 186.889C1053.76 186.889 1055.13 189.237 1055.13 191.585Z" fill="white"/>
<path opacity="0.7" d="M1399.17 27.2421C1399.17 31.9375 1396.42 36.6327 1393.67 36.6327C1390.92 36.6327 1388.17 31.9375 1388.17 27.2421C1388.17 22.5467 1390.92 17.8513 1393.67 17.8513C1396.42 17.8513 1399.17 22.5467 1399.17 27.2421Z" fill="white"/>
<path opacity="0.7" d="M1397.8 273.754C1397.8 276.102 1396.42 278.45 1395.04 278.45C1393.67 278.45 1392.29 276.102 1392.29 273.754C1392.29 271.407 1393.67 269.059 1395.04 269.059C1396.42 269.059 1397.8 271.407 1397.8 273.754Z" fill="white"/>
<path opacity="0.7" d="M660.177 222.102C660.177 224.45 658.801 226.798 657.424 226.798C656.048 226.798 654.672 224.45 654.672 222.102C654.672 219.755 656.048 217.407 657.424 217.407C658.801 217.407 660.177 219.755 660.177 222.102Z" fill="white"/>
<path opacity="0.7" d="M500.548 107.066C500.548 109.414 499.172 111.761 497.796 111.761C496.42 111.761 495.043 109.414 495.043 107.066C495.043 104.718 496.42 102.37 497.796 102.37C499.172 102.37 500.548 104.718 500.548 107.066Z" fill="white"/>
<path opacity="0.7" d="M865.227 299.577C865.227 301.925 863.851 304.272 862.475 304.272C861.099 304.272 859.722 301.925 859.722 299.577C859.722 297.229 861.099 294.881 862.475 294.881C863.851 294.881 865.227 297.229 865.227 299.577Z" fill="white"/>
<path opacity="0.7" d="M226.699 236.191C226.699 240.887 223.947 245.582 221.194 245.582C218.442 245.582 215.69 240.887 215.69 236.191C215.69 231.496 218.442 226.8 221.194 226.8C223.947 226.8 226.699 231.496 226.699 236.191Z" fill="white"/>
<path opacity="0.7" d="M373.938 179.844C373.938 184.539 372.562 186.887 369.809 186.887C367.057 186.887 365.681 184.539 365.681 179.844C365.681 175.149 367.057 172.801 369.809 172.801C372.562 172.801 373.938 175.149 373.938 179.844Z" fill="white"/>
<path opacity="0.7" d="M614.767 36.6335C614.767 38.9812 613.391 41.329 612.014 41.329C610.638 41.329 609.262 38.9812 609.262 36.6335C609.262 34.2858 610.638 31.9382 612.014 31.9382C613.391 31.9382 614.767 34.2858 614.767 36.6335Z" fill="white"/>
<path opacity="0.7" d="M318.893 285.493C318.893 290.188 317.517 292.536 314.764 292.536C312.012 292.536 310.636 290.188 310.636 285.493C310.636 280.797 312.012 278.449 314.764 278.449C317.517 278.449 318.893 280.797 318.893 285.493Z" fill="white"/>
<path opacity="0.7" d="M1312.48 222.103C1312.48 217.407 1315.23 212.712 1317.98 212.712C1320.73 212.712 1323.49 217.407 1323.49 222.103C1323.49 226.798 1320.73 231.493 1317.98 231.493C1315.23 231.493 1312.48 229.146 1312.48 222.103Z" fill="white"/>
<path opacity="0.7" d="M942.29 13.1573C942.29 8.4619 945.042 3.7666 947.794 3.7666C950.546 3.7666 953.299 8.4619 953.299 13.1573C953.299 17.8528 950.546 22.5483 947.794 22.5483C943.666 22.5483 942.29 17.8528 942.29 13.1573Z" fill="white"/>
<path opacity="0.7" d="M1125.32 24.8967C1125.32 29.5921 1122.56 34.2875 1119.81 34.2875C1117.06 34.2875 1114.31 29.5921 1114.31 24.8967C1114.31 20.2013 1117.06 15.5061 1119.81 15.5061C1122.56 15.5061 1125.32 17.8537 1125.32 24.8967Z" fill="white"/>
<path opacity="0.7" d="M785.414 111.762C785.414 118.805 781.285 125.848 777.157 125.848C773.028 125.848 768.9 118.805 768.9 111.762C768.9 104.719 773.028 97.6755 777.157 97.6755C782.661 100.023 785.414 104.719 785.414 111.762Z" fill="white"/>
<g opacity="0.7">
<path opacity="0.7" d="M828.076 257.322L829.452 290.19L850.094 294.885H829.452L828.076 332.448L826.7 294.885H806.057L826.7 290.19L828.076 257.322Z" fill="white"/>
<path opacity="0.7" d="M836.337 278.45L829.457 292.536L836.337 308.97L828.08 294.883L818.447 308.97L826.704 292.536L818.447 278.45L828.08 290.188L836.337 278.45Z" fill="white"/>
</g>
<path opacity="0.7" d="M332.161 1306.06C332.161 1303.71 333.537 1301.37 334.913 1301.37C336.289 1301.37 337.666 1303.71 337.666 1306.06C337.666 1308.41 336.289 1310.76 334.913 1310.76C333.537 1310.76 332.161 1308.41 332.161 1306.06Z" fill="white"/>
<path opacity="0.7" d="M797.374 2115.13C797.374 2112.78 798.751 2110.43 800.127 2110.43C801.503 2110.43 802.879 2112.78 802.879 2115.13C802.879 2117.48 801.503 2119.82 800.127 2119.82C798.751 2119.82 797.374 2119.82 797.374 2115.13Z" fill="white"/>
<path opacity="0.7" d="M615.982 1440.21C615.982 1437.86 617.358 1435.51 618.735 1435.51C620.111 1435.51 621.487 1437.86 621.487 1440.21C621.487 1442.56 620.111 1444.91 618.735 1444.91C617.358 1444.91 615.982 1442.56 615.982 1440.21Z" fill="white"/>
<path opacity="0.7" d="M549.505 923.937C549.505 921.589 550.881 919.242 552.257 919.242C553.634 919.242 555.01 921.589 555.01 923.937C555.01 926.285 553.634 928.633 552.257 928.633C550.881 928.633 549.505 926.285 549.505 923.937Z" fill="white"/>
<path opacity="0.7" d="M963.55 992.424C963.55 990.076 964.926 987.729 966.302 987.729C967.678 987.729 969.054 990.076 969.054 992.424C969.054 994.772 967.678 997.12 966.302 997.12C964.926 997.12 963.55 994.772 963.55 992.424Z" fill="white"/>
<path opacity="0.7" d="M378.6 1143.39C378.6 1141.04 379.976 1138.69 381.352 1138.69C382.728 1138.69 384.105 1141.04 384.105 1143.39C384.105 1145.74 382.728 1148.08 381.352 1148.08C379.976 1150.43 378.6 1148.08 378.6 1143.39Z" fill="white"/>
<path opacity="0.7" d="M614.843 1125.31C614.843 1120.62 617.595 1115.92 620.347 1115.92C623.099 1115.92 625.852 1120.62 625.852 1125.31C625.852 1130.01 623.099 1134.7 620.347 1134.7C617.595 1134.7 614.843 1130.01 614.843 1125.31Z" fill="white"/>
<path opacity="0.7" d="M693.278 1612.12C693.278 1607.42 696.031 1602.73 698.783 1602.73C701.535 1602.73 704.287 1607.42 704.287 1612.12C704.287 1616.81 701.535 1621.51 698.783 1621.51C696.031 1621.51 693.278 1616.81 693.278 1612.12Z" fill="white"/>
<path opacity="0.7" d="M623.952 879.03C623.952 876.682 625.329 874.334 626.705 874.334C628.081 874.334 629.457 876.682 629.457 879.03C629.457 881.378 628.081 883.725 626.705 883.725C625.329 883.725 623.952 881.378 623.952 879.03Z" fill="white"/>
<path opacity="0.7" d="M510.269 2173.47C510.269 2171.12 511.645 2168.77 513.021 2168.77C514.397 2168.77 515.773 2171.12 515.773 2173.47C515.773 2175.81 514.397 2178.16 513.021 2178.16C511.645 2178.16 510.269 2175.81 510.269 2173.47Z" fill="white"/>
<path opacity="0.7" d="M536.479 1865.53C536.479 1863.18 537.855 1860.83 539.231 1860.83C540.607 1860.83 541.983 1863.18 541.983 1865.53C541.983 1867.87 540.607 1870.22 539.231 1870.22C537.855 1870.22 536.479 1867.87 536.479 1865.53Z" fill="white"/>
<path opacity="0.7" d="M666.12 2300.6C666.12 2298.25 667.496 2295.9 668.872 2295.9C670.248 2295.9 671.625 2298.25 671.625 2300.6C671.625 2302.95 670.248 2305.29 668.872 2305.29C667.496 2307.64 666.12 2305.29 666.12 2300.6Z" fill="white"/>
<path opacity="0.7" d="M498 2611.39C498 2606.7 500.752 2602 503.504 2602C506.257 2602 509.009 2606.7 509.009 2611.39C509.009 2616.09 506.257 2620.78 503.504 2620.78C500.752 2620.78 498 2616.09 498 2611.39Z" fill="white"/>
<path opacity="0.7" d="M828.635 1690.35C828.635 1685.65 831.387 1680.96 834.139 1680.96C836.891 1680.96 839.644 1685.65 839.644 1690.35C839.644 1695.04 836.891 1699.74 834.139 1699.74C831.387 1699.74 828.635 1695.04 828.635 1690.35Z" fill="white"/>
<path opacity="0.7" d="M911.578 1330.92C911.578 1328.58 912.954 1326.23 914.33 1326.23C915.706 1326.23 917.082 1328.58 917.082 1330.92C917.082 1333.27 915.706 1335.62 914.33 1335.62C912.954 1335.62 911.578 1333.27 911.578 1330.92Z" fill="white"/>
<path opacity="0.7" d="M1426.74 1514.47C1426.74 1512.13 1428.12 1509.78 1429.49 1509.78C1430.87 1509.78 1432.24 1512.13 1432.24 1514.47C1432.24 1516.82 1430.87 1519.17 1429.49 1519.17C1428.12 1519.17 1426.74 1516.82 1426.74 1514.47Z" fill="white"/>
<path opacity="0.7" d="M1358.89 998.076C1358.89 995.728 1360.27 993.381 1361.65 993.381C1363.02 993.381 1364.4 995.728 1364.4 998.076C1364.4 1000.42 1363.02 1002.77 1361.65 1002.77C1360.27 1002.77 1358.89 1000.42 1358.89 998.076Z" fill="white"/>
<path opacity="0.7" d="M1156.57 901.957C1156.57 899.609 1157.94 897.261 1159.32 897.261C1160.7 897.261 1162.07 899.609 1162.07 901.957C1162.07 904.305 1160.7 906.652 1159.32 906.652C1157.94 906.652 1156.57 904.305 1156.57 901.957Z" fill="white"/>
<path opacity="0.7" d="M1134.85 1593.54C1134.85 1591.19 1136.23 1588.84 1137.6 1588.84C1138.98 1588.84 1140.36 1591.19 1140.36 1593.54C1140.36 1595.89 1138.98 1598.23 1137.6 1598.23C1136.23 1598.23 1134.85 1595.89 1134.85 1593.54Z" fill="white"/>
<path opacity="0.7" d="M1319.66 2247.61C1319.66 2245.26 1321.03 2242.91 1322.41 2242.91C1323.79 2242.91 1325.16 2245.26 1325.16 2247.61C1325.16 2249.95 1323.79 2252.3 1322.41 2252.3C1321.03 2252.3 1319.66 2249.95 1319.66 2247.61Z" fill="white"/>
<path opacity="0.7" d="M1345.86 1939.66C1345.86 1937.32 1347.23 1934.97 1348.61 1934.97C1349.98 1934.97 1351.36 1937.32 1351.36 1939.66C1351.36 1942.01 1349.98 1944.36 1348.61 1944.36C1347.23 1944.36 1345.86 1942.01 1345.86 1939.66Z" fill="white"/>
<path opacity="0.7" d="M1210.31 1950.51C1208.79 1950.51 1207.56 1952.62 1207.56 1955.21C1207.56 1957.8 1208.79 1959.9 1210.31 1959.9C1211.83 1959.9 1213.06 1957.8 1213.06 1955.21C1213.06 1952.62 1211.83 1950.51 1210.31 1950.51Z" fill="white"/>
<path opacity="0.7" d="M1386.37 2449.11C1386.37 2444.41 1389.12 2439.72 1391.87 2439.72C1394.62 2439.72 1397.38 2444.41 1397.38 2449.11C1397.38 2453.8 1394.62 2458.5 1391.87 2458.5C1389.12 2458.5 1386.37 2453.8 1386.37 2449.11Z" fill="white"/>
<path opacity="0.7" d="M1433.78 2124.18C1433.78 2119.48 1435.15 2117.13 1437.91 2117.13C1440.66 2117.13 1442.03 2119.48 1442.03 2124.18C1442.03 2128.87 1440.66 2131.22 1437.91 2131.22C1436.53 2131.22 1433.78 2128.87 1433.78 2124.18Z" fill="white"/>
<path opacity="0.7" d="M1398.42 1187.43C1398.42 1185.08 1399.8 1182.74 1401.18 1182.74C1402.55 1182.74 1403.93 1185.08 1403.93 1187.43C1403.93 1189.78 1402.55 1192.13 1401.18 1192.13C1399.8 1192.13 1398.42 1189.78 1398.42 1187.43Z" fill="white"/>
<path opacity="0.7" d="M1292.35 1756.59C1292.35 1749.54 1296.48 1742.5 1300.61 1742.5C1304.74 1742.5 1308.87 1749.54 1308.87 1756.59C1308.87 1763.63 1304.74 1770.67 1300.61 1770.67C1296.48 1770.67 1292.35 1763.63 1292.35 1756.59Z" fill="white"/>
<path opacity="0.7" d="M1208.63 1964.97C1208.63 1960.27 1211.38 1955.57 1214.14 1955.57C1216.89 1955.57 1219.64 1960.27 1219.64 1964.97C1219.64 1969.66 1216.89 1974.36 1214.14 1974.36C1210.01 1974.36 1208.63 1969.66 1208.63 1964.97Z" fill="white"/>
<path opacity="0.7" d="M656 2444.39C656 2439.7 658.752 2435 661.505 2435C664.257 2435 667.009 2439.7 667.009 2444.39C667.009 2449.09 664.257 2453.78 661.505 2453.78C657.376 2453.78 656 2449.09 656 2444.39Z" fill="white"/>
<path opacity="0.7" d="M1167.56 1693.18C1167.56 1688.49 1170.31 1683.79 1173.06 1683.79C1175.82 1683.79 1178.57 1688.49 1178.57 1693.18C1178.57 1697.88 1175.82 1702.57 1173.06 1702.57C1170.31 1702.57 1167.56 1697.88 1167.56 1693.18Z" fill="white"/>
<path opacity="0.7" d="M1075.59 1637.61C1075.59 1632.91 1076.96 1630.56 1079.72 1630.56C1082.47 1630.56 1083.85 1632.91 1083.85 1637.61C1083.85 1642.3 1082.47 1644.65 1079.72 1644.65C1078.34 1644.65 1075.59 1639.96 1075.59 1637.61Z" fill="white"/>
<path opacity="0.7" d="M667.19 1872.29C667.19 1874.64 665.814 1876.99 664.437 1876.99C663.061 1876.99 661.685 1874.64 661.685 1872.29C661.685 1869.94 663.061 1867.6 664.437 1867.6C665.814 1865.25 667.19 1867.6 667.19 1872.29Z" fill="white"/>
<path opacity="0.7" d="M959.135 1790.88C959.135 1793.23 957.759 1795.58 956.383 1795.58C955.007 1795.58 953.63 1793.23 953.63 1790.88C953.63 1788.54 955.007 1786.19 956.383 1786.19C957.759 1786.19 959.135 1788.54 959.135 1790.88Z" fill="white"/>
<path opacity="0.7" d="M746.752 1444.63C746.752 1446.98 745.376 1449.33 744 1449.33C742.623 1449.33 741.247 1446.98 741.247 1444.63C741.247 1442.28 742.623 1439.94 744 1439.94C745.376 1439.94 746.752 1442.28 746.752 1444.63Z" fill="white"/>
<path opacity="0.7" d="M707.541 937.656C707.541 942.351 704.789 947.047 702.037 947.047C699.284 947.047 696.532 942.351 696.532 937.656C696.532 932.961 699.284 928.265 702.037 928.265C704.789 928.265 707.541 930.613 707.541 937.656Z" fill="white"/>
<path opacity="0.7" d="M907.903 2105.69C907.903 2110.38 905.151 2115.08 902.398 2115.08C899.646 2115.08 896.894 2110.38 896.894 2105.69C896.894 2100.99 899.646 2096.3 902.398 2096.3C905.151 2096.3 907.903 2100.99 907.903 2105.69Z" fill="white"/>
<path opacity="0.7" d="M78.0091 2482.39C78.0091 2487.09 75.2569 2491.78 72.5047 2491.78C69.7524 2491.78 67 2487.09 67 2482.39C67 2477.7 69.7524 2473 72.5047 2473C75.2569 2473 78.0091 2477.7 78.0091 2482.39Z" fill="white"/>
<path opacity="0.7" d="M1070.65 1180.16C1070.65 1184.86 1067.89 1189.55 1065.14 1189.55C1062.39 1189.55 1059.64 1184.86 1059.64 1180.16C1059.64 1175.47 1062.39 1170.77 1065.14 1170.77C1069.27 1170.77 1070.65 1175.47 1070.65 1180.16Z" fill="white"/>
<path opacity="0.7" d="M108.908 1393.76C108.908 1391.41 110.284 1389.07 111.66 1389.07C113.036 1389.07 114.413 1391.41 114.413 1393.76C114.413 1396.11 113.036 1398.46 111.66 1398.46C110.284 1398.46 108.908 1396.11 108.908 1393.76Z" fill="white"/>
<path opacity="0.7" d="M42.4333 877.49C42.4333 875.142 43.8094 872.794 45.1855 872.794C46.5616 872.794 47.9379 875.142 47.9379 877.49C47.9379 879.837 46.5616 882.185 45.1855 882.185C43.8094 882.185 42.4333 879.837 42.4333 877.49Z" fill="white"/>
<path opacity="0.7" d="M122.307 1625.4C122.307 1623.05 123.683 1620.7 125.06 1620.7C126.436 1620.7 127.812 1623.05 127.812 1625.4C127.812 1627.75 126.436 1630.09 125.06 1630.09C123.683 1630.09 122.307 1627.75 122.307 1625.4Z" fill="white"/>
<path opacity="0.7" d="M409.282 1527.33C409.282 1522.63 412.034 1517.94 414.787 1517.94C417.539 1517.94 420.292 1522.63 420.292 1527.33C420.292 1532.02 417.539 1536.72 414.787 1536.72C412.034 1536.72 409.282 1532.02 409.282 1527.33Z" fill="white"/>
<path opacity="0.7" d="M186.207 1565.67C186.207 1560.97 188.959 1556.28 191.712 1556.28C194.464 1556.28 197.216 1560.97 197.216 1565.67C197.216 1570.37 194.464 1575.06 191.712 1575.06C188.959 1575.06 186.207 1570.37 186.207 1565.67Z" fill="white"/>
<path opacity="0.7" d="M346.997 2457.1C346.997 2454.75 348.373 2452.41 349.749 2452.41C351.125 2452.41 352.501 2454.75 352.501 2457.1C352.501 2459.45 351.125 2461.8 349.749 2461.8C348.373 2464.14 346.997 2461.8 346.997 2457.1Z" fill="white"/>
<path opacity="0.7" d="M3.19668 2127.02C3.19668 2124.67 4.57276 2122.32 5.94888 2122.32C7.325 2122.32 8.70129 2124.67 8.70129 2127.02C8.70129 2129.37 7.325 2131.72 5.94888 2131.72C4.57276 2131.72 3.19668 2129.37 3.19668 2127.02Z" fill="white"/>
<path opacity="0.7" d="M29.4049 1819.08C29.4049 1816.73 30.7812 1814.38 32.1573 1814.38C33.5334 1814.38 34.9095 1816.73 34.9095 1819.08C34.9095 1821.43 33.5334 1823.77 32.1573 1823.77C30.7812 1823.77 29.4049 1821.43 29.4049 1819.08Z" fill="white"/>
<path opacity="0.7" d="M75 2323.7C75 2321.35 76.3762 2319 77.7523 2319C79.1285 2319 80.5046 2321.35 80.5046 2323.7C80.5046 2326.04 79.1285 2328.39 77.7523 2328.39C76.3762 2330.74 75 2328.39 75 2323.7Z" fill="white"/>
<path opacity="0.7" d="M228.295 2375.7C228.295 2373.35 229.671 2371 231.048 2371C232.424 2371 233.8 2373.35 233.8 2375.7C233.8 2378.04 232.424 2380.39 231.048 2380.39C229.671 2380.39 228.295 2378.04 228.295 2375.7Z" fill="white"/>
<path opacity="0.7" d="M24 2967.39C24 2962.7 26.7525 2958 29.5048 2958C32.2571 2958 35.0093 2962.7 35.0093 2967.39C35.0093 2972.09 32.2571 2976.78 29.5048 2976.78C26.7525 2976.78 24 2972.09 24 2967.39Z" fill="white"/>
<path opacity="0.7" d="M130.793 1838.02C130.793 1833.33 133.545 1828.63 136.297 1828.63C139.049 1828.63 141.802 1833.33 141.802 1838.02C141.802 1842.72 139.049 1847.42 136.297 1847.42C133.545 1847.42 130.793 1842.72 130.793 1838.02Z" fill="white"/>
<path opacity="0.7" d="M218.963 1970.71C218.963 1966.01 221.715 1961.32 224.468 1961.32C227.22 1961.32 229.972 1966.01 229.972 1970.71C229.972 1975.4 227.22 1980.1 224.468 1980.1C221.715 1980.1 218.963 1977.75 218.963 1970.71Z" fill="white"/>
<path opacity="0.7" d="M435.205 2150.39C435.205 2145.69 437.957 2141 440.709 2141C443.461 2141 446.214 2145.69 446.214 2150.39C446.214 2155.08 443.461 2159.78 440.709 2159.78C437.957 2159.78 435.205 2157.43 435.205 2150.39Z" fill="white"/>
<path opacity="0.7" d="M1026 2707.04C1026 2702.35 1027.38 2700 1030.13 2700C1032.88 2700 1034.26 2702.35 1034.26 2707.04C1034.26 2711.74 1032.88 2714.09 1030.13 2714.09C1027.38 2714.09 1026 2709.39 1026 2707.04Z" fill="white"/>
<path opacity="0.7" d="M69.3466 1249.08C69.3466 1246.73 70.7226 1244.38 72.0987 1244.38C73.4748 1244.38 74.8509 1246.73 74.8509 1249.08C74.8509 1251.43 73.4748 1253.77 72.0987 1253.77C70.7226 1256.12 69.3466 1253.77 69.3466 1249.08Z" fill="white"/>
<path opacity="0.7" d="M383.842 845.408C383.842 840.712 385.218 838.365 387.971 838.365C390.723 838.365 392.099 840.712 392.099 845.408C392.099 850.103 390.723 852.451 387.971 852.451C385.218 852.451 383.842 850.103 383.842 845.408Z" fill="white"/>
<path opacity="0.7" d="M1230.37 1097.31C1230.37 1090.26 1234.5 1083.22 1238.63 1083.22C1242.75 1083.22 1246.88 1090.26 1246.88 1097.31C1246.88 1104.35 1242.75 1111.39 1238.63 1111.39C1233.12 1109.04 1230.37 1104.35 1230.37 1097.31Z" fill="white"/>
<g opacity="0.7">
<path opacity="0.7" d="M1043.89 2130.33L1042.51 2081.03L1012.23 2076.33L1041.13 2073.98L1043.89 2022.33L1046.64 2073.98L1075.54 2076.33L1046.64 2081.03L1043.89 2130.33Z" fill="white"/>
<path opacity="0.7" d="M1031.5 2099.81L1041.14 2078.68L1031.5 2055.2L1043.89 2073.98L1057.65 2052.85L1046.64 2076.33L1057.65 2099.81L1043.89 2081.02L1031.5 2099.81Z" fill="white"/>
</g>
<g opacity="0.7">
<path opacity="0.7" d="M1285.65 2776.99L1282.9 2727.69L1254 2723L1282.9 2720.65L1285.65 2669L1288.4 2720.65L1317.3 2723L1288.4 2727.69L1285.65 2776.99Z" fill="white"/>
<path opacity="0.7" d="M1273.27 2746.47L1282.9 2723L1273.27 2701.87L1285.65 2718.3L1299.41 2699.52L1287.03 2723L1299.41 2744.13L1285.65 2727.69L1273.27 2746.47Z" fill="white"/>
</g>
<g opacity="0.7">
<path opacity="0.7" d="M1193.52 947.352L1192.15 914.484L1171.5 909.789H1192.15L1193.52 872.225L1194.9 909.789H1215.54L1194.9 914.484L1193.52 947.352Z" fill="white"/>
<path opacity="0.7" d="M1185.26 926.224L1192.14 912.138L1185.26 895.704L1193.52 909.79L1203.15 895.704L1194.89 912.138L1203.15 926.224L1193.52 914.486L1185.26 926.224Z" fill="white"/>
</g>
<g opacity="0.7">
<path opacity="0.7" d="M147.018 2775.13L145.642 2742.26L125 2737.56H145.642L147.018 2700L148.394 2737.56H169.036L148.394 2742.26L147.018 2775.13Z" fill="white"/>
<path opacity="0.7" d="M137.381 2754L145.638 2739.91L137.381 2723.48L147.014 2735.22L156.647 2723.48L148.39 2737.56L156.647 2754L147.014 2742.26L137.381 2754Z" fill="white"/>
</g>
<g opacity="0.7">
<path opacity="0.7" d="M7.9843 975.1L5.23206 928.145L-23.667 921.102H5.23206L7.9843 867.105L10.7365 921.102H39.6356L10.7365 928.145L7.9843 975.1Z" fill="white"/>
<path opacity="0.7" d="M-4.39837 946.928L5.23478 923.451L-4.39837 899.973L7.98701 918.755L21.7484 899.973L9.36303 923.451L21.7484 944.58L7.98701 928.146L-4.39837 946.928Z" fill="white"/>
</g>
<g opacity="0.7">
<path opacity="0.7" d="M232.589 1442.4L231.213 1407.19L210.571 1404.84L231.213 1402.49L232.589 1367.28L233.965 1402.49L254.607 1404.84L233.965 1407.19L232.589 1442.4Z" fill="white"/>
<path opacity="0.7" d="M224.328 1421.27L231.208 1404.84L224.328 1388.41L232.584 1402.49L242.217 1388.41L233.961 1404.84L242.217 1418.93L232.584 1407.19L224.328 1421.27Z" fill="white"/>
</g>
<g opacity="0.7">
<path opacity="0.7" d="M530.763 1251.06L529.387 1215.85L508.745 1213.5L529.387 1211.15L530.763 1175.94L532.139 1211.15L552.781 1213.5L532.139 1215.85L530.763 1251.06Z" fill="white"/>
<path opacity="0.7" d="M522.501 1229.94L529.382 1213.5L522.501 1197.07L530.758 1211.15L540.391 1197.07L532.134 1213.5L540.391 1227.59L530.758 1215.85L522.501 1229.94Z" fill="white"/>
</g>
<path opacity="0.7" d="M332.161 408.515C332.161 406.167 333.537 403.82 334.913 403.82C336.289 403.82 337.666 406.167 337.666 408.515C337.666 410.863 336.289 413.21 334.913 413.21C333.537 413.21 332.161 410.863 332.161 408.515Z" fill="white"/>
<path opacity="0.7" d="M615.982 542.664C615.982 540.316 617.358 537.969 618.735 537.969C620.111 537.969 621.487 540.316 621.487 542.664C621.487 545.012 620.111 547.359 618.735 547.359C617.358 547.359 615.982 545.012 615.982 542.664Z" fill="white"/>
<path opacity="0.7" d="M693.278 714.572C693.278 709.876 696.031 705.181 698.783 705.181C701.535 705.181 704.287 709.876 704.287 714.572C704.287 719.267 701.535 723.962 698.783 723.962C696.031 723.962 693.278 719.267 693.278 714.572Z" fill="white"/>
<path opacity="0.7" d="M828.635 792.802C828.635 788.106 831.387 783.411 834.139 783.411C836.891 783.411 839.644 788.106 839.644 792.802C839.644 797.497 836.891 802.192 834.139 802.192C831.387 802.192 828.635 797.497 828.635 792.802Z" fill="white"/>
<path opacity="0.7" d="M911.578 433.378C911.578 431.03 912.954 428.682 914.33 428.682C915.706 428.682 917.082 431.03 917.082 433.378C917.082 435.725 915.706 438.073 914.33 438.073C912.954 438.073 911.578 435.725 911.578 433.378Z" fill="white"/>
<path opacity="0.7" d="M1331.2 587.523C1331.2 580.48 1335.33 573.437 1339.46 573.437C1343.59 573.437 1347.71 580.48 1347.71 587.523C1347.71 594.566 1343.59 601.609 1339.46 601.609C1335.33 599.262 1331.2 594.566 1331.2 587.523Z" fill="white"/>
<path opacity="0.7" d="M1426.74 616.928C1426.74 614.581 1428.12 612.233 1429.49 612.233C1430.87 612.233 1432.24 614.581 1432.24 616.928C1432.24 619.276 1430.87 621.624 1429.49 621.624C1428.12 621.624 1426.74 619.276 1426.74 616.928Z" fill="white"/>
<path opacity="0.7" d="M1134.85 695.992C1134.85 693.644 1136.23 691.297 1137.6 691.297C1138.98 691.297 1140.36 693.644 1140.36 695.992C1140.36 698.34 1138.98 700.687 1137.6 700.687C1136.23 700.687 1134.85 698.34 1134.85 695.992Z" fill="white"/>
<path opacity="0.7" d="M1235.04 402.383C1235.04 395.34 1239.17 388.297 1243.3 388.297C1247.43 388.297 1251.55 395.34 1251.55 402.383C1251.55 409.426 1247.43 416.469 1243.3 416.469C1237.79 416.469 1235.04 411.774 1235.04 402.383Z" fill="white"/>
<path opacity="0.7" d="M1292.35 859.04C1292.35 851.997 1296.48 844.954 1300.61 844.954C1304.74 844.954 1308.87 851.997 1308.87 859.04C1308.87 866.083 1304.74 873.126 1300.61 873.126C1296.48 873.126 1292.35 866.083 1292.35 859.04Z" fill="white"/>
<path opacity="0.7" d="M1167.56 795.635C1167.56 790.939 1170.31 786.244 1173.06 786.244C1175.82 786.244 1178.57 790.939 1178.57 795.635C1178.57 800.33 1175.82 805.026 1173.06 805.026C1170.31 805.026 1167.56 800.33 1167.56 795.635Z" fill="white"/>
<path opacity="0.7" d="M1075.59 740.061C1075.59 735.366 1076.96 733.018 1079.72 733.018C1082.47 733.018 1083.85 735.366 1083.85 740.061C1083.85 744.757 1082.47 747.104 1079.72 747.104C1078.34 747.104 1075.59 742.409 1075.59 740.061Z" fill="white"/>
<path opacity="0.7" d="M959.135 893.337C959.135 895.685 957.759 898.033 956.383 898.033C955.007 898.033 953.63 895.685 953.63 893.337C953.63 890.99 955.007 888.642 956.383 888.642C957.759 888.642 959.135 890.99 959.135 893.337Z" fill="white"/>
<path opacity="0.7" d="M746.752 547.086C746.752 549.433 745.376 551.781 744 551.781C742.623 551.781 741.247 549.433 741.247 547.086C741.247 544.738 742.623 542.39 744 542.39C745.376 542.39 746.752 544.738 746.752 547.086Z" fill="white"/>
<path opacity="0.7" d="M1046.43 527.007C1046.43 534.05 1042.3 541.093 1038.17 541.093C1034.04 541.093 1029.91 534.05 1029.91 527.007C1029.91 519.964 1034.04 512.921 1038.17 512.921C1043.68 515.269 1046.43 519.964 1046.43 527.007Z" fill="white"/>
<path opacity="0.7" d="M21.4846 471.877C21.4846 467.182 22.8608 464.834 25.6131 464.834C28.3653 464.834 29.7413 467.182 29.7413 471.877C29.7413 476.573 28.3653 478.92 25.6131 478.92C24.2369 478.92 21.4846 476.573 21.4846 471.877Z" fill="white"/>
<path opacity="0.7" d="M108.908 496.216C108.908 493.869 110.284 491.521 111.66 491.521C113.036 491.521 114.413 493.869 114.413 496.216C114.413 498.564 113.036 500.912 111.66 500.912C110.284 500.912 108.908 498.564 108.908 496.216Z" fill="white"/>
<path opacity="0.7" d="M122.307 727.851C122.307 725.504 123.683 723.156 125.06 723.156C126.436 723.156 127.812 725.504 127.812 727.851C127.812 730.199 126.436 732.547 125.06 732.547C123.683 732.547 122.307 730.199 122.307 727.851Z" fill="white"/>
<path opacity="0.7" d="M183.019 418.492C183.019 413.797 184.395 411.449 187.147 411.449C189.899 411.449 191.275 413.797 191.275 418.492C191.275 423.188 189.899 425.536 187.147 425.536C185.771 425.536 183.019 423.188 183.019 418.492Z" fill="white"/>
<path opacity="0.7" d="M409.282 629.781C409.282 625.086 412.034 620.39 414.787 620.39C417.539 620.39 420.292 625.086 420.292 629.781C420.292 634.477 417.539 639.172 414.787 639.172C412.034 639.172 409.282 634.477 409.282 629.781Z" fill="white"/>
<path opacity="0.7" d="M186.207 668.124C186.207 663.429 188.959 658.733 191.712 658.733C194.464 658.733 197.216 663.429 197.216 668.124C197.216 672.819 194.464 677.515 191.712 677.515C188.959 677.515 186.207 672.819 186.207 668.124Z" fill="white"/>
<path opacity="0.7" d="M69.3466 351.531C69.3466 349.183 70.7226 346.836 72.0987 346.836C73.4748 346.836 74.8509 349.183 74.8509 351.531C74.8509 353.879 73.4748 356.227 72.0987 356.227C70.7226 358.574 69.3466 356.227 69.3466 351.531Z" fill="white"/>
<g opacity="0.7">
<path opacity="0.7" d="M232.589 544.855L231.213 509.64L210.571 507.292L231.213 504.944L232.589 469.729L233.965 504.944L254.607 507.292L233.965 509.64L232.589 544.855Z" fill="white"/>
<path opacity="0.7" d="M224.328 523.728L231.208 507.294L224.328 490.86L232.584 504.946L242.217 490.86L233.961 507.294L242.217 521.38L232.584 509.641L224.328 523.728Z" fill="white"/>
</g>
<g opacity="0.7">
<path opacity="0.7" d="M530.763 353.518L529.387 318.302L508.745 315.954L529.387 313.606L530.763 278.391L532.139 313.606L552.781 315.954L532.139 318.302L530.763 353.518Z" fill="white"/>
<path opacity="0.7" d="M522.501 332.39L529.382 315.956L522.501 299.522L530.758 313.608L540.391 299.522L532.134 315.956L540.391 330.042L530.758 318.304L522.501 332.39Z" fill="white"/>
</g>
<g opacity="0.7">
<path opacity="0.7" d="M376.555 2167.97L373.803 2135.1L354.537 2130.4H373.803L376.555 2092.84L377.931 2130.4H398.573L377.931 2135.1L376.555 2167.97Z" fill="white"/>
<path opacity="0.7" d="M366.918 2146.84L373.798 2132.75L366.918 2116.32L375.174 2128.06L386.183 2116.32L377.927 2130.41L386.183 2146.84L376.551 2135.1L366.918 2146.84Z" fill="white"/>
</g>
</svg>
