<svg width="644" height="756" viewBox="0 0 644 756" fill="none" xmlns="http://www.w3.org/2000/svg">
<g filter="url(#filter0_d_109_2)">
<path fill-rule="evenodd" clip-rule="evenodd" d="M64.7804 723.39C99.9716 701.205 138.875 672.778 178.66 639.478C255.471 575.187 317.82 507.585 350.558 456.562C361.694 419.215 364.803 390.238 358.553 374.33C341.509 370.95 312.712 379.396 276.758 397.444C232.933 437.773 178.805 507.992 130.272 591.21C102.763 638.379 80.5852 683.663 64.7804 723.39Z" fill="#FED381"/>
</g>
<path fill-rule="evenodd" clip-rule="evenodd" d="M183.455 582.365C201.456 572.493 221.155 559.527 241.084 544.041C279.56 514.143 310 481.759 325.186 456.583C329.326 437.496 329.53 422.404 325.314 413.709C315.871 411.056 300.643 414.023 282.015 421.678C260.25 440.656 234.415 474.839 212.29 516.151C199.75 539.567 190.012 562.265 183.455 582.365Z" fill="white"/>
<ellipse cx="288.574" cy="456.979" rx="29.917" ry="62.5748" transform="rotate(40.1609 288.574 456.979)" fill="white"/>
<path fill-rule="evenodd" clip-rule="evenodd" d="M360.372 455.645C350.846 441.551 338.419 427.659 323.497 415.066C308.944 402.785 293.573 393.052 278.449 386.065L256.729 411.803C271.853 418.79 287.224 428.523 301.777 440.804C316.699 453.397 329.126 467.289 338.652 481.383L360.372 455.645Z" fill="#242E22"/>
<path fill-rule="evenodd" clip-rule="evenodd" d="M279.64 380.181L377.272 264.489C376.817 264.084 376.356 263.683 375.887 263.288C347.656 239.464 305.456 243.036 281.631 271.268L201.114 366.679C198.67 369.576 196.513 372.62 194.643 375.776C221.018 371.187 250.075 372.708 279.64 380.181Z" fill="url(#paint0_linear_109_2)"/>
<path fill-rule="evenodd" clip-rule="evenodd" d="M356.912 449.44L454.544 333.749C455.02 334.129 455.492 334.516 455.961 334.912C484.192 358.736 487.765 400.936 463.94 429.168L383.423 524.579C380.979 527.476 378.341 530.113 375.544 532.487C375.633 505.716 369.249 477.329 356.912 449.44Z" fill="url(#paint1_linear_109_2)"/>
<path fill-rule="evenodd" clip-rule="evenodd" d="M363.466 260.442C341.391 276.214 318.361 296.175 296.09 319.486C278.974 337.4 263.801 355.73 250.924 373.669C261.371 374.766 272.009 376.719 282.72 379.52L374.288 268.417C373.859 268.025 373.423 267.638 372.981 267.256C369.962 264.648 366.776 262.378 363.466 260.442ZM417.999 428.424C402.149 450.332 385.497 470.033 368.963 486.893C365.977 473.462 361.527 459.892 355.674 446.438L447.242 335.335C447.692 335.702 448.137 336.077 448.579 336.459C454.532 341.601 459.328 347.623 462.94 354.176C451.32 378.002 436.178 403.295 417.999 428.424Z" fill="#421116"/>
<path fill-rule="evenodd" clip-rule="evenodd" d="M261.193 398.999C282.779 408.283 304.323 422.269 323.916 440.646C334.31 450.395 343.507 460.772 351.44 471.495C384.997 454.878 427.09 416.86 464.547 366.318C509.771 305.295 535.45 243.266 533.445 206.879C533.916 195.309 531.171 186 524.83 179.793C498.356 153.884 419.217 191.87 348.068 264.637C301.761 311.998 270.252 362.42 261.193 398.999Z" fill="url(#paint2_linear_109_2)"/>
<path fill-rule="evenodd" clip-rule="evenodd" d="M458.069 374.876C460.242 372.066 462.402 369.212 464.547 366.318C470.254 358.617 475.65 350.9 480.719 343.22C464.489 326.031 446.213 308.716 426.246 291.866C406.267 275.006 386.113 259.892 366.429 246.778C360.276 252.465 354.143 258.425 348.068 264.637C344.928 267.849 341.855 271.075 338.854 274.31C359.419 287.846 380.533 303.586 401.456 321.243C422.305 338.838 441.312 356.94 458.069 374.876ZM306.536 312.982C313.887 303.132 321.985 293.168 330.762 283.242C352.928 297.501 375.808 314.374 398.464 333.494C417.82 349.828 435.587 366.599 451.441 383.269C443.13 393.571 434.673 403.237 426.204 412.176C410.463 395.661 392.848 379.051 373.673 362.87C351.21 343.913 328.525 327.164 306.536 312.982Z" fill="url(#paint3_radial_109_2)"/>
<ellipse cx="388.037" cy="341.284" rx="14.4379" ry="48.4273" transform="rotate(40.1609 388.037 341.284)" fill="url(#paint4_linear_109_2)"/>
<path d="M399.222 350.417C386.858 365.068 374.33 379.335 362.352 392.403C350.375 405.471 339.183 417.084 329.416 426.579C319.649 436.074 311.497 443.266 305.427 447.743C299.357 452.22 295.487 453.894 294.038 452.672C292.589 451.449 293.589 447.352 296.982 440.616C300.375 433.879 306.094 424.635 313.812 413.41C321.53 402.186 331.096 389.201 341.964 375.197C352.833 361.193 364.79 346.445 377.154 331.794L388.188 341.106L399.222 350.417Z" fill="url(#paint5_linear_109_2)"/>
<g filter="url(#filter1_d_109_2)">
<circle cx="476.378" cy="232.364" r="40.9075" transform="rotate(40.1609 476.378 232.364)" fill="#C4C4C4"/>
<g filter="url(#filter2_i_109_2)">
<circle cx="476.378" cy="232.364" r="21.6569" transform="rotate(40.1609 476.378 232.364)" fill="#6CCAD7"/>
</g>
</g>
<defs>
<filter id="filter0_d_109_2" x="64.7804" y="373.599" width="312.954" height="366.791" filterUnits="userSpaceOnUse" color-interpolation-filters="sRGB">
<feFlood flood-opacity="0" result="BackgroundImageFix"/>
<feColorMatrix in="SourceAlpha" type="matrix" values="0 0 0 0 0 0 0 0 0 0 0 0 0 0 0 0 0 0 127 0" result="hardAlpha"/>
<feOffset dx="16" dy="17"/>
<feComposite in2="hardAlpha" operator="out"/>
<feColorMatrix type="matrix" values="0 0 0 0 0 0 0 0 0 0 0 0 0 0 0 0 0 0 0.39 0"/>
<feBlend mode="normal" in2="BackgroundImageFix" result="effect1_dropShadow_109_2"/>
<feBlend mode="normal" in="SourceGraphic" in2="effect1_dropShadow_109_2" result="shape"/>
</filter>
<filter id="filter1_d_109_2" x="431.47" y="191.456" width="89.8168" height="89.8169" filterUnits="userSpaceOnUse" color-interpolation-filters="sRGB">
<feFlood flood-opacity="0" result="BackgroundImageFix"/>
<feColorMatrix in="SourceAlpha" type="matrix" values="0 0 0 0 0 0 0 0 0 0 0 0 0 0 0 0 0 0 127 0" result="hardAlpha"/>
<feOffset dy="4"/>
<feGaussianBlur stdDeviation="2"/>
<feComposite in2="hardAlpha" operator="out"/>
<feColorMatrix type="matrix" values="0 0 0 0 0 0 0 0 0 0 0 0 0 0 0 0 0 0 0.25 0"/>
<feBlend mode="normal" in2="BackgroundImageFix" result="effect1_dropShadow_109_2"/>
<feBlend mode="normal" in="SourceGraphic" in2="effect1_dropShadow_109_2" result="shape"/>
</filter>
<filter id="filter2_i_109_2" x="454.721" y="210.707" width="43.3148" height="47.3148" filterUnits="userSpaceOnUse" color-interpolation-filters="sRGB">
<feFlood flood-opacity="0" result="BackgroundImageFix"/>
<feBlend mode="normal" in="SourceGraphic" in2="BackgroundImageFix" result="shape"/>
<feColorMatrix in="SourceAlpha" type="matrix" values="0 0 0 0 0 0 0 0 0 0 0 0 0 0 0 0 0 0 127 0" result="hardAlpha"/>
<feOffset dy="4"/>
<feGaussianBlur stdDeviation="2"/>
<feComposite in2="hardAlpha" operator="arithmetic" k2="-1" k3="1"/>
<feColorMatrix type="matrix" values="0 0 0 0 0 0 0 0 0 0 0 0 0 0 0 0 0 0 0.25 0"/>
<feBlend mode="normal" in2="shape" result="effect1_innerShadow_109_2"/>
</filter>
<linearGradient id="paint0_linear_109_2" x1="259.354" y1="297.666" x2="311.873" y2="341.986" gradientUnits="userSpaceOnUse">
<stop stop-color="#BC1C2B"/>
<stop offset="1" stop-color="#931420"/>
</linearGradient>
<linearGradient id="paint1_linear_109_2" x1="441.663" y1="455.566" x2="399.233" y2="433.324" gradientUnits="userSpaceOnUse">
<stop stop-color="#BC1B2A"/>
<stop offset="1" stop-color="#931420"/>
</linearGradient>
<linearGradient id="paint2_linear_109_2" x1="443.756" y1="192.765" x2="437.341" y2="382.569" gradientUnits="userSpaceOnUse">
<stop stop-color="#DA3329"/>
<stop offset="0.5125" stop-color="#BA1E26"/>
<stop offset="1" stop-color="#A01C23"/>
</linearGradient>
<radialGradient id="paint3_radial_109_2" cx="0" cy="0" r="1" gradientUnits="userSpaceOnUse" gradientTransform="translate(393.862 329.813) rotate(70.9903) scale(88.1271 86.329)">
<stop stop-color="white"/>
<stop offset="0.408333" stop-color="white"/>
<stop offset="0.647916" stop-color="white"/>
<stop offset="1" stop-color="#E3E3E3"/>
</radialGradient>
<linearGradient id="paint4_linear_109_2" x1="347.605" y1="327.177" x2="356.104" y2="369.118" gradientUnits="userSpaceOnUse">
<stop stop-color="#D84444"/>
<stop offset="1" stop-color="#960202"/>
</linearGradient>
<linearGradient id="paint5_linear_109_2" x1="384.714" y1="282.53" x2="367.645" y2="393.547" gradientUnits="userSpaceOnUse">
<stop stop-color="#D84444"/>
<stop offset="1" stop-color="#960202"/>
</linearGradient>
</defs>
</svg>
